# xmcd CD database file
#
# Track frame offsets:
#	150
#	29297
#	53965
#	82512
#	108927
#	134735
#	159427
#	184675
#	217402
#
# Disc length: 3131 seconds
#
# Revision: 0
# Processed by: cddbd v1.5PL3 Copyright (c) Steve Scherf et al.
# Submitted via: CDex 1.51
#
DISCID=770c3909
DTITLE=Most, The - Much, More, the Most
DYEAR=2001
DGENRE=Jazz
TTITLE0=Much, More, The Most
TTITLE1=Critical Message
TTITLE2=The Sphinx
TTITLE3=C'est le Vent, Betty -a.k.a. "Betty Blue"
TTITLE4=Some Of The Things I Have
TTITLE5=Fontana di Trevi
TTITLE6=Nori's Dilemma
TTITLE7=Sometime In The Snow
TTITLE8=Uchiiri
EXTD=YEAR: 2001
EXTT0=
EXTT1=
EXTT2=
EXTT3=
EXTT4=
EXTT5=
EXTT6=
EXTT7=
EXTT8=
PLAYORDER=
